<?xml version="1.0" standalone="no"?>
<!DOCTYPE svg PUBLIC "-//W3C//DTD SVG 20010904//EN"
 "http://www.w3.org/TR/2001/REC-SVG-20010904/DTD/svg10.dtd">
<svg version="1.0" xmlns="http://www.w3.org/2000/svg"
 width="96.000000pt" height="96.000000pt" viewBox="0 0 96.000000 96.000000"
 preserveAspectRatio="xMidYMid meet">
<metadata>
Created by potrace 1.14, written by Peter Selinger 2001-2017
</metadata>
<g transform="translate(0.000000,96.000000) scale(0.100000,-0.100000)"
fill="#000000" stroke="none">
<path d="M90 949 c-43 -9 -82 -52 -78 -87 5 -39 25 -38 42 2 19 45 66 57 121
30 46 -21 148 -22 190 0 41 22 81 20 106 -5 14 -14 18 -27 13 -42 -10 -34 -14
-34 -39 -3 -24 30 -63 31 -51 1 13 -34 72 -104 88 -105 18 0 48 80 48 128 0
30 -51 82 -82 83 -48 2 -84 -3 -103 -15 -24 -16 -112 -18 -140 -3 -33 17 -78
24 -115 16z"/>
<path d="M53 793 c-30 -49 -32 -73 -7 -73 15 0 74 85 74 107 0 31 -40 11 -67
-34z"/>
<path d="M95 718 c-35 -57 -58 -103 -57 -118 1 -14 2 -76 3 -138 0 -121 13
-182 56 -266 24 -47 24 -51 9 -77 -19 -32 -21 -93 -4 -106 17 -12 139 -8 147
6 4 6 7 53 6 105 l-1 95 81 0 c44 -1 95 4 113 10 33 10 33 10 53 -35 23 -55
23 -53 3 -75 -14 -16 -23 -94 -11 -105 5 -5 73 -8 130 -5 l27 1 0 184 c0 102
-4 187 -9 191 -5 3 -15 -1 -23 -8 -10 -10 -13 -51 -12 -166 1 -164 -1 -169
-51 -157 -32 8 -32 30 1 44 29 14 29 14 -15 120 -31 76 -26 74 -144 51 -60
-12 -76 -11 -138 5 -55 14 -73 15 -82 6 -9 -9 -7 -16 11 -27 20 -14 22 -23 22
-108 l0 -93 -35 0 c-46 0 -52 12 -20 42 l27 25 -36 80 c-20 44 -42 99 -49 123
-13 43 -15 157 -4 175 4 7 24 6 54 -2 56 -14 113 -11 124 7 13 21 0 28 -54 28
-60 0 -137 31 -137 55 0 19 11 40 57 113 32 50 36 52 52 38 23 -21 51 -20 66
1 11 15 15 12 38 -24 31 -49 45 -59 60 -44 9 9 6 22 -11 52 -13 23 -21 43 -18
47 3 3 6 2 6 -3 0 -4 7 -2 15 5 12 10 13 16 4 26 -8 10 -38 14 -104 14 l-92 0
-58 -92z"/>
<path d="M528 734 c-7 -7 1 -76 11 -86 3 -4 42 -9 87 -11 127 -8 201 -54 256
-161 20 -38 22 -57 22 -231 l1 -190 -42 -2 c-37 -2 -43 1 -43 19 0 12 8 22 21
25 25 7 23 26 -11 116 l-22 58 -41 -6 c-62 -11 -81 -23 -66 -41 9 -11 23 -14
44 -10 30 6 33 4 48 -36 16 -40 16 -42 -3 -60 -28 -27 -28 -96 1 -106 20 -8
147 -7 155 0 2 3 4 94 4 204 1 218 -7 265 -58 334 -63 84 -147 128 -257 132
-54 3 -60 5 -65 28 -6 24 -29 38 -42 24z"/>
<path d="M419 688 c-3 -96 -16 -121 -57 -116 -17 2 -31 15 -43 38 -45 86 -108
103 -165 46 -37 -37 -42 -54 -18 -63 10 -4 26 6 44 26 16 17 33 31 38 31 15 0
38 -24 61 -63 25 -42 68 -68 99 -62 61 11 84 48 80 125 -2 43 -7 56 -20 58
-13 3 -18 -3 -19 -20z"/>
<path d="M469 527 c-16 -19 -46 -37 -75 -47 -50 -15 -58 -27 -31 -44 39 -25
167 56 167 104 0 30 -31 24 -61 -13z"/>
<path d="M408 163 c0 -10 -2 -23 -2 -28 -1 -6 -12 -22 -24 -35 -29 -32 -27
-85 3 -85 15 0 20 6 19 23 -1 16 6 27 23 35 21 9 24 16 21 56 -2 34 -7 47 -20
49 -12 2 -19 -3 -20 -15z"/>
</g>
</svg>
